<?xml version="1.0" encoding="UTF-8"?><svg id="Layer_2" xmlns="http://www.w3.org/2000/svg" viewBox="0 0 758.67 215.28"><defs><style>.cls-1{fill:none;stroke:#282c34;stroke-miterlimit:10;stroke-width:12px;}.cls-2{fill:#282c34;}</style></defs><g id="Layer_1-2"><g><g><path class="cls-1" d="m75.55,179.78c-.5,5.44-2.7,10.37-5.2,15.17-1.96,3.74-4.21,7.3-6.75,10.67-.07.1-.17.19-.34.39-.17-.2-.27-.29-.34-.39-2.54-3.37-4.79-6.94-6.75-10.67-2.51-4.79-4.7-9.73-5.2-15.17-.33-3.64-.17-7.41-.22-11.08,0-.06.05-.11.11-.11h24.8c.06,0,.11.05.11.11-.05,3.67.12,7.44-.22,11.08Z"/><path class="cls-1" d="m112.45,121.61c-3.96-3.74-7.7-7.69-11.58-11.51-.66-.64-.86-1.22-.74-2.12,1.29-10.22,1.35-20.44.21-30.67-1.63-14.66-5.44-28.69-12.3-41.82-3.58-6.84-7.97-13.11-13.49-18.55-3.05-2.99-8.91-8.89-10.73-10.71-.3-.31-.78-.31-1.08,0-1.81,1.82-7.73,7.75-10.74,10.71-5.53,5.44-9.92,11.7-13.49,18.55-6.86,13.12-10.67,27.15-12.3,41.82-1.14,10.23-1.08,20.45.21,30.67.11.9-.09,1.49-.74,2.12-3.88,3.82-7.62,7.77-11.58,11.51-6.67,6.31-8.87,14.05-7.87,22.95.56,4.94,2.02,9.64,3.59,14.33.92,2.72,2.57,7.65,3.54,10.54.35,1.04,1.67,1.34,2.44.57,4.27-4.27,15.64-15.64,21.86-21.83.31-.31.86-.54,1.29-.54,8.11-.02,16.22-.03,24.32-.03s16.21,0,24.32.03c.43,0,.98.24,1.29.54,6.22,6.19,17.59,17.56,21.86,21.83.78.77,2.09.46,2.44-.57.97-2.89,2.62-7.82,3.54-10.54,1.57-4.69,3.03-9.39,3.59-14.33,1.01-8.9-1.19-16.65-7.87-22.95h0Zm-40.86-40.76c-2.33,2.28-5.32,3.43-8.31,3.44-2.99,0-5.98-1.15-8.31-3.44-4.63-4.54-4.67-12-.09-16.67,2.3-2.35,5.35-3.52,8.4-3.5,3.05,0,6.1,1.15,8.4,3.5,4.58,4.67,4.54,12.13-.09,16.67Z"/></g><g><path class="cls-2" d="m187.83,139.74c-5.44-3.24-9.67-7.8-12.71-13.69-3.04-5.88-4.56-12.56-4.56-20.04s1.52-14.16,4.56-20.04c3.04-5.88,7.28-10.44,12.71-13.69,5.43-3.24,11.64-4.86,18.62-4.86,5.18,0,10,.9,14.43,2.69,4.44,1.79,8.15,4.39,11.14,7.78l1.35-8.82h17.2v73.89h-17.2l-1.35-8.97c-3.09,3.49-6.83,6.13-11.22,7.93-4.39,1.79-9.18,2.69-14.36,2.69-6.98,0-13.19-1.62-18.62-4.86h.01Zm8.15-18.48c3.79,3.99,8.62,5.98,14.51,5.98s10.87-1.99,14.66-5.98c3.79-3.99,5.68-9.07,5.68-15.26s-1.9-11.27-5.68-15.26c-3.79-3.99-8.68-5.98-14.66-5.98s-10.72,2-14.51,5.98c-3.79,3.99-5.68,9.07-5.68,15.26s1.89,11.27,5.68,15.26Z"/><path class="cls-2" d="m263.59,40.05c2.29-2.19,5.18-3.29,8.68-3.29s6.41,1.1,8.75,3.29c2.34,2.19,3.51,4.99,3.51,8.38s-1.17,6.01-3.51,8.15c-2.34,2.15-5.26,3.22-8.75,3.22s-6.38-1.07-8.68-3.22c-2.3-2.14-3.44-4.86-3.44-8.15s1.15-6.18,3.44-8.38Zm-1.35,29.02h19.89v73.89h-19.89v-73.89h0Z"/><path class="cls-2" d="m293.8,69.07h17.2l1.64,9.27c5.38-7.18,12.31-10.77,20.79-10.77,3.59,0,7.05.58,10.4,1.72,3.34,1.15,6.15,2.82,8.45,5.01l-8.68,15.41c-3.79-2.59-7.78-3.89-11.97-3.89-5.48,0-9.85,1.85-13.09,5.53-3.24,3.69-4.86,8.88-4.86,15.56v36.05h-19.89v-73.89h0Z"/><path class="cls-2" d="m369.86,141.38c-7.83-2.54-14.68-6.16-20.57-10.84l10.77-15.41c4.39,3.59,9.55,6.38,15.48,8.38,5.93,2,12.04,2.99,18.32,2.99,6.98,0,12.51-1.22,16.6-3.66s6.13-5.76,6.13-9.95-1.9-7.08-5.68-9.27c-3.79-2.19-9.82-3.79-18.1-4.79-14.26-1.69-24.66-5.06-31.19-10.1-6.53-5.03-9.8-12.24-9.8-21.61,0-6.08,1.77-11.47,5.31-16.15s8.45-8.35,14.73-10.99,13.51-3.96,21.69-3.96c7.08,0,14.03,1.1,20.87,3.29,6.83,2.19,12.94,5.29,18.32,9.27l-10.17,14.66c-4.19-3.09-8.73-5.43-13.61-7.03-4.89-1.59-9.82-2.39-14.81-2.39-6.48,0-11.77,1.22-15.86,3.66s-6.13,5.56-6.13,9.35,1.79,6.78,5.38,8.97c3.59,2.2,9.47,3.79,17.65,4.79,14.56,2,25.2,5.56,31.93,10.69,6.73,5.14,10.1,12.24,10.1,21.31,0,6.48-1.79,12.19-5.38,17.13-3.59,4.94-8.67,8.75-15.26,11.44-6.58,2.69-14.16,4.04-22.74,4.04s-16.18-1.27-24.01-3.81h.03Z"/><path class="cls-2" d="m443.22,69.07h17.2l1.35,8.82c2.99-3.39,6.71-5.98,11.14-7.78,4.44-1.79,9.25-2.69,14.43-2.69,6.98,0,13.19,1.62,18.62,4.86,5.43,3.24,9.67,7.8,12.71,13.69s4.56,12.56,4.56,20.04-1.52,14.16-4.56,20.04c-3.04,5.89-7.28,10.45-12.71,13.69-5.44,3.24-11.64,4.86-18.62,4.86-4.89,0-9.4-.8-13.54-2.39s-7.7-3.89-10.69-6.88v40.68h-19.89v-106.94Zm25.43,52.2c3.79,3.99,8.68,5.98,14.66,5.98s10.72-1.99,14.51-5.98c3.79-3.99,5.68-9.07,5.68-15.26s-1.9-11.27-5.68-15.26c-3.79-3.99-8.63-5.98-14.51-5.98s-10.87,2-14.66,5.98c-3.79,3.99-5.68,9.07-5.68,15.26s1.89,11.27,5.68,15.26Z"/><path class="cls-2" d="m543.21,139.74c-5.44-3.24-9.67-7.8-12.71-13.69-3.04-5.88-4.56-12.56-4.56-20.04s1.52-14.16,4.56-20.04c3.04-5.88,7.28-10.44,12.71-13.69,5.43-3.24,11.64-4.86,18.62-4.86,5.18,0,10,.9,14.43,2.69,4.44,1.79,8.15,4.39,11.14,7.78l1.35-8.82h17.2v73.89h-17.2l-1.35-8.97c-3.09,3.49-6.83,6.13-11.22,7.93-4.39,1.79-9.18,2.69-14.36,2.69-6.98,0-13.19-1.62-18.62-4.86h0Zm8.15-18.48c3.79,3.99,8.62,5.98,14.51,5.98s10.87-1.99,14.66-5.98c3.79-3.99,5.68-9.07,5.68-15.26s-1.89-11.27-5.68-15.26c-3.79-3.99-8.68-5.98-14.66-5.98s-10.72,2-14.51,5.98c-3.79,3.99-5.68,9.07-5.68,15.26s1.89,11.27,5.68,15.26Z"/><path class="cls-2" d="m632.05,139.89c-6.03-3.14-10.69-7.63-13.99-13.46s-4.94-12.64-4.94-20.42,1.67-14.28,5.01-20.12c3.34-5.83,8-10.37,13.99-13.61,5.98-3.24,12.91-4.86,20.79-4.86,10.97,0,20.44,3.84,28.42,11.52l-11.52,12.41c-2.09-2.09-4.54-3.71-7.33-4.86-2.79-1.15-5.73-1.72-8.82-1.72-6.18,0-11.19,1.97-15.03,5.91s-5.76,9.05-5.76,15.33,1.92,11.39,5.76,15.33,8.85,5.91,15.03,5.91c6.78,0,12.46-2.39,17.05-7.18l11.67,12.56c-8.28,7.98-18,11.97-29.17,11.97-8.08,0-15.13-1.57-21.16-4.71h0Z"/><path class="cls-2" d="m700.26,140.11c-6.13-3.19-10.87-7.7-14.21-13.54-3.34-5.83-5.01-12.64-5.01-20.42s1.62-14.28,4.86-20.12c3.24-5.83,7.8-10.37,13.69-13.61,5.88-3.24,12.66-4.86,20.34-4.86,12.06,0,21.54,3.37,28.42,10.1,6.88,6.73,10.32,15.93,10.32,27.6,0,2.29-.15,4.74-.45,7.33h-56.99c.7,4.69,2.97,8.43,6.81,11.22s8.7,4.19,14.58,4.19c3.99,0,7.83-.62,11.52-1.87s6.73-2.97,9.12-5.16l11.07,11.37c-3.89,3.99-8.68,7.08-14.36,9.27s-11.72,3.29-18.1,3.29c-8.28,0-15.48-1.6-21.61-4.79h0Zm39.26-40.68c-.4-4.79-2.3-8.57-5.68-11.37-3.39-2.79-7.83-4.19-13.31-4.19s-9.6,1.37-12.94,4.11-5.36,6.56-6.06,11.44h37.99Z"/></g></g></g></svg>