<?xml version="1.0" encoding="UTF-8"?><svg id="Layer_1" xmlns="http://www.w3.org/2000/svg" viewBox="0 0 898.77 963"><defs><style>.cls-1{fill:#fff;}</style></defs><path class="cls-1" d="m686.45,0c8.61,1.55,17.4,2.46,25.8,4.75,62.21,17,101.5,56.93,117.89,119.24,1.03,3.92,2.67,4.53,6.07,4.51,10.83-.06,21.67-.21,32.48.3,17.67.84,30.07,14.75,29.82,32.84-.23,16.78-13.88,30.65-30.91,31.05-10.83.25-21.66.14-32.49,0-3.06-.04-4.09.94-4.9,4.01-16.96,64.17-57.41,105.44-122.09,120.53-84.51,19.72-169.49-34.2-189.79-118.81-.42-1.74-.95-3.46-1.57-5.67h-6.89c-158.81,0-317.62,0-476.44,0-15.96,0-27.72-8.78-32.21-23.99-5.47-18.53,8.35-38.57,27.66-39.89,5.97-.41,11.98-.41,17.98-.41,154.48-.02,308.96-.04,463.44.12,5.08,0,6.87-1.35,8.23-6.28,17.95-65.01,60.06-104.76,125.88-119.36,5.94-1.32,12.03-1.99,18.05-2.96,8,0,16,0,24,0Zm-11.55,256.71c52.17.17,95.29-43.16,95.58-96.03.29-52.37-42.91-96.22-95.08-96.53-53.76-.32-96.96,42.06-97.41,95.57-.45,53.89,42.44,96.82,96.9,97Z"/><path class="cls-1" d="m533.45,963c-10.22-1.98-20.7-3.09-30.61-6.09-59.85-18.12-97.58-57.77-113.27-118.26-1.09-4.19-3.36-4.08-6.44-4.08-51.9.02-103.81.01-155.71,0-64.22,0-128.44,0-192.67-.04-15.73,0-27.01-7.01-32.26-19.85-8.52-20.86,6.41-43.63,29.15-44.44,1.5-.05,3-.01,4.5-.01,115.32,0,230.63-.02,345.95.09,4.61,0,6.52-.89,7.93-5.95,17.21-61.96,56.72-102.05,119.17-118.07,62.17-15.95,130.92,10.71,167.6,63.58,12.02,17.32,20.71,36.04,25.17,56.62.89,4.13,3.36,3.74,6.2,3.74,51.83,0,103.65-.02,155.48,0,16.7,0,27.95,7.33,33.18,21.42,7.24,19.5-6.43,40.94-27.14,42.51-2.65.2-5.32.34-7.98.34-51.33.02-102.65.06-153.98-.08-3.76-.01-5.03,1.03-5.84,4.68-13.47,60.87-65.04,110.17-126.34,120.96-6.01,1.06-12.05,1.95-18.07,2.92h-24Zm11.61-256.71c-52.56.04-95.61,43.41-95.61,96.31,0,53.13,43.37,96.3,96.7,96.26,52.52-.04,96.15-43.71,96.01-96.1-.14-53.69-43.24-96.51-97.1-96.47Z"/><path class="cls-1" d="m381.87,513.76c-3.78,17.74-9.77,34.26-19.02,49.39-25.85,42.22-62.94,68.9-111.97,76.56-60.69,9.49-111.09-10.75-150.79-57.25-15.92-18.64-25.97-40.57-31.43-64.45-.87-3.78-2.46-4.34-5.7-4.3-10.16.14-20.33.22-30.5,0-15.84-.33-29.19-11.3-31.9-25.9-2.82-15.22,5.24-30.36,19.68-35.92,4.24-1.63,9.02-2.36,13.6-2.53,9.82-.37,19.66-.21,29.49-.06,3.16.05,4.51-.75,5.3-4.18,15.11-64.88,68.45-113.53,134.43-122.87,64.51-9.13,129.83,23.45,161.58,80.49,8.06,14.48,13.65,29.86,17.35,46.5,2.39,0,4.68,0,6.98,0,158.32,0,316.64,0,474.97,0,16.56,0,29.29,8.82,33.49,23.13,5.99,20.39-8.78,40.43-30.49,41.36-1.66.07-3.33.02-5,.02-157.49,0-314.98,0-472.47,0h-7.6Zm-60.97-32.35c.48-52.15-42.73-95.92-95.11-96.36-53.2-.45-96.76,42.4-97.35,95.75-.58,52.67,42.67,96.7,95.45,97.16,53.35.47,96.51-42.49,97-96.55Z"/></svg>