<?xml version="1.0" encoding="UTF-8"?><svg id="Layer_2" xmlns="http://www.w3.org/2000/svg" viewBox="0 0 384 384"><g id="Layer_1-2"><path d="m157.5,0c7.25,0,14.5,0,21.75,0,.83.21,1.64.5,2.48.62,7.03,1.03,14.14,1.66,21.08,3.1,110.67,22.93,167.48,148.51,111.65,246.77-3.56,6.26-7.61,12.24-11.73,18.83.97.81,2.09,1.62,3.06,2.59,22.18,22.16,44.29,44.39,66.55,66.46,5.22,5.18,9.91,10.52,11.66,17.88v7.5c-1.76,6.5-4.62,12.37-10.55,16.04-2.79,1.72-5.96,2.83-8.95,4.21h-8.25c-7.09-1.68-12.33-6.09-17.34-11.14-22.26-22.46-44.68-44.76-67.02-67.14-.96-.97-1.64-2.22-2.45-3.32-1.66,1.07-2.6,1.66-3.51,2.28-54.96,37.03-113.01,42.48-172.52,13.55C43.56,293.99,13.77,252.95,2.92,198.46,1.61,191.87.96,185.16,0,178.5c0-7,0-14,0-21,.57-4.57,1.03-9.15,1.74-13.69,5.67-36.7,21.44-68.39,47.7-94.66C74.05,24.52,103.64,9.11,137.93,2.88c6.48-1.18,13.04-1.93,19.57-2.88ZM49.14,168.56c-.21,65.84,53.01,119.25,119.23,119.66,65.88.41,119.68-53.2,119.86-119.42.18-65.89-52.84-119.11-119.22-119.7-65.65-.58-119.67,53.25-119.88,119.46Z"/></g></svg>