<?xml version="1.0" encoding="UTF-8"?><svg id="Layer_2" xmlns="http://www.w3.org/2000/svg" viewBox="0 0 280 280"><defs><style>.cls-1{fill:none;stroke:#11caf0;stroke-miterlimit:10;stroke-width:12px;}.cls-2{fill:#11caf0;}.cls-3{fill:#282c34;}</style></defs><g id="Layer_1-2"><rect class="cls-3" width="280" height="280"/><g><path class="cls-2" d="m66.04,213.95l.5-7.07c.02-.36.05-.61.08-.84.62-4.42,1.63-8.89,2.98-13.21,1.73-5.53,3.92-11.34,8.16-16.44,1.83-2.2,3.81-4.16,5.73-6.07.76-.76,1.52-1.51,2.26-2.27l1.75-1.79,2.58-.05c1.63-.01,3.22.64,4.37,1.79l19.31,19.31v2.59c0,1.63-.68,3.21-1.85,4.34-.75.73-1.5,1.49-2.26,2.25-1.9,1.92-3.87,3.91-6.07,5.73h0c-5.1,4.24-10.92,6.43-16.44,8.16-4.32,1.35-8.79,2.36-13.28,2.99-.17.03-.41.05-.76.07h-.15s-6.92.52-6.92.52Zm24.09-33.31c-1.13,1.14-2.19,2.26-3.14,3.41-2.91,3.5-4.57,8.01-5.93,12.36-.36,1.15-.69,2.32-1,3.5,1.18-.3,2.35-.64,3.5-1,4.35-1.36,8.86-3.03,12.36-5.93h0c1.15-.96,2.27-2.02,3.41-3.14l-9.2-9.2Zm4.24-4.24s-.02.02-.03.03c0,0,.02-.02.03-.03Z"/><path class="cls-1" d="m166.98,182.56c-.15-5.44,0-10.88-.05-16.32-.01-.92.26-1.47.98-2.03,8.14-6.31,15.41-13.49,21.83-21.53,9.21-11.52,16.44-24.14,20.87-38.27,2.31-7.37,3.64-14.9,3.57-22.66-.04-4.28-.02-12.59-.01-15.16,0-.43-.33-.77-.76-.76-2.57,0-10.95.02-15.16-.02-7.75-.07-15.29,1.26-22.66,3.57-14.13,4.43-26.74,11.66-38.27,20.87-8.04,6.43-15.23,13.7-21.53,21.83-.56.72-1.11.99-2.03.98-5.44-.04-10.88.11-16.32-.05-9.18-.26-16.21,3.66-21.79,10.67-3.1,3.89-5.39,8.25-7.59,12.67-1.28,2.57-3.6,7.23-4.95,9.95-.48.98.23,2.13,1.32,2.13,6.04,0,22.12,0,30.89.02.44,0,.99.22,1.3.53,5.75,5.72,11.48,11.45,17.22,17.18s11.46,11.47,17.18,17.22c.31.31.52.86.53,1.3.02,8.77.02,24.86.02,30.89,0,1.09,1.15,1.81,2.13,1.32,2.73-1.36,7.38-3.67,9.95-4.95,4.43-2.2,8.79-4.5,12.67-7.59,7.01-5.58,10.93-12.62,10.67-21.79Zm-.07-57.72c-3.26-.03-6.19-1.34-8.31-3.44-2.11-2.12-3.41-5.05-3.45-8.31-.07-6.49,5.18-11.79,11.72-11.86,3.29-.03,6.27,1.3,8.42,3.46,2.17,2.15,3.5,5.13,3.46,8.42-.07,6.54-5.37,11.79-11.86,11.72Z"/></g></g></svg>